# xmcd
#
# Track frame offsets:
#	150
#	12745
#	27479
#	47185
#	71320
#	94960
#	116187
#	141398
#	158999
#	176610
#	202778
#	223947
#
# Disc length: 3280 seconds
#
# Revision: 1
# Processed by: cddbd v1.5.2PL0 Copyright (c) Steve Scherf et al.
# Submitted via: audiograbber 1.83.01
#
DISCID=b70cce0c
DTITLE=Gladys Knight and The Pips - Icon
DYEAR=2010
DGENRE=Soul
TTITLE0=I Heard It Through The Grapevine
TTITLE1=If I Were Your Woman
TTITLE2=Neither One Of Us (Wants To Be The First To Say Goodbye)
TTITLE3=Love Overboard
TTITLE4=License To Kil
TTITLE5=Men
TTITLE6=Superwoman with Dionne Warwick& Patti LaBelle
TTITLE7=Ain't Nothing Like The Real Thing with Vince Gill
TTITLE8=Choice Of Colors
TTITLE9=I Don't Want To Know
TTITLE10=End Of The Road
TTITLE11=Someone To Watch Over Me
EXTD=
EXTT0=
EXTT1=
EXTT2=
EXTT3=
EXTT4=
EXTT5=
EXTT6=
EXTT7=
EXTT8=
EXTT9=
EXTT10=
EXTT11=
PLAYORDER=
